HIERARCHY
ROOT Hips
{
   OFFSET 0.00000 0.00000 0.00000
   CHANNELS 6 Xposition Yposition Zposition Zrotation Xrotation Yrotation
   JOINT Spine
   {
      OFFSET 0.000000 9.512400 0.000000
      CHANNELS 3 Zrotation Xrotation Yrotation
      JOINT Spine1
      {
         OFFSET -0.000000 20.525920 0.102128
         CHANNELS 3 Zrotation Xrotation Yrotation
         JOINT HEad
         {
            OFFSET 0.000000 6.987328 0.009072
            CHANNELS 3 Zrotation Xrotation Yrotation
            End Site
            {
               OFFSET -0.232000 10.219360 2.011160
            }
         }
         JOINT LeftShoulder1
         {
            OFFSET 7.192000 -0.289800 -0.176000
            CHANNELS 3 Zrotation Xrotation Yrotation
            JOINT LeftArm
            {
               OFFSET 8.226160 -0.002704 0.257696
               CHANNELS 3 Zrotation Xrotation Yrotation
               JOINT LeftForeArm
               {
                  OFFSET 26.213519 0.079312 -1.139472
                  CHANNELS 3 Zrotation Xrotation Yrotation
                  JOINT LeftHand
                  {
                     OFFSET 22.051441 0.068288 0.817728
                     CHANNELS 3 Zrotation Xrotation Yrotation
                     End Site
                     {
                        OFFSET 13.395442 -0.480000 1.202328
                     }
                  }
               }
            }
         }
         JOINT RightShoulder
         {
            OFFSET -7.192000 -0.289800 -0.176000
            CHANNELS 3 Zrotation Xrotation Yrotation
            JOINT RightArm
            {
               OFFSET -8.226160 -0.002704 0.257696
               CHANNELS 3 Zrotation Xrotation Yrotation
               JOINT RightForeArm
               {
                  OFFSET -26.317679 0.079312 -1.139472
                  CHANNELS 3 Zrotation Xrotation Yrotation
                  JOINT RightHand
                  {
                     OFFSET -21.993682 0.068288 0.817728
                     CHANNELS 3 Zrotation Xrotation Yrotation
                     End Site
                     {
                        OFFSET -13.304962 -0.480000 1.202328
                     }
                  }
               }
            }
         }
      }
   }
   JOINT LeftUpLeg
   {
      OFFSET 7.156640 -6.933656 0.081320
      CHANNELS 3 Zrotation Xrotation Yrotation
      JOINT LeftLeg
      {
         OFFSET 0.000000 -35.538158 1.098160
         CHANNELS 3 Zrotation Xrotation Yrotation
         JOINT LeftFoot
         {
            OFFSET -0.202840 -33.673920 -1.168472
            CHANNELS 3 Zrotation Xrotation Yrotation
            JOINT LeftToes
            {
               OFFSET -0.032000 -3.532072 6.799280
               CHANNELS 3 Zrotation Xrotation Yrotation
               End Site
               {
                  OFFSET 0.064000 -0.037960 7.823832
               }
            }
         }
      }
   }
   JOINT RightUpLeg
   {
      OFFSET -7.156640 -6.933656 0.081320
      CHANNELS 3 Zrotation Xrotation Yrotation
      JOINT RightLeg
      {
         OFFSET 0.000000 -35.538158 1.098160
         CHANNELS 3 Zrotation Xrotation Yrotation
         JOINT RightFoot
         {
            OFFSET 0.202840 -33.673920 -1.168472
            CHANNELS 3 Zrotation Xrotation Yrotation
            JOINT RightToes
            {
               OFFSET 0.032000 -3.532072 6.799280
               CHANNELS 3 Zrotation Xrotation Yrotation
               End Site
               {
                  OFFSET -0.064000 -0.109960 7.823832
               }
            }
         }
      }
   }
}
MOTION
Frames: 13
Frame Time: 0.016670
-67.513994 76.626538 -8.959980 -8.600983 2.643355 152.114077 -4.090049 -15.451259 -21.288219 -14.397105 38.605541 21.821186 -15.291851 -10.089984 -11.354459 24.663719 8.944834 -28.159668 -47.426819 -51.446289 -77.899216 -75.444255 -61.255459 -108.124319 -39.314934 -22.349740 -30.593162 -96.158859 41.225239 96.693226 115.523361 13.619815 219.538918 -3.885406 62.119143 54.622478 -27.432746 -15.962126 21.090352 19.882807 -41.341352 -165.003628 -6.656060 -20.745508 142.625579 -47.689996 -8.607629 77.514048 6.264516 7.528583 -24.020239 -25.885404 -9.401620 -51.268185 -17.981928 28.270773 36.108987 -32.940851 -11.722668 50.670479 19.540608 -50.946528 -35.651293
-68.331670 75.940460 -11.142503 -7.777629 3.007251 152.245258 -1.841859 -15.427961 -20.924752 -13.602877 38.750580 22.614878 -15.822120 -11.601221 -11.087162 24.982737 9.013601 -27.529629 -47.215472 -48.599046 -78.696599 -72.047117 -62.679553 -104.673557 -43.723340 -21.231534 -29.458947 -97.316576 41.817430 97.819169 112.506862 13.689372 221.626634 -1.380655 65.542857 52.398670 -27.183342 -14.889910 23.616803 20.311705 -41.570362 -166.915698 -6.980341 -20.053852 144.568522 -50.664789 -8.658352 77.864792 6.842189 8.341100 -22.900200 -26.926715 -7.657108 -50.669810 -18.038051 28.877671 36.441638 -32.496473 -11.836839 50.508723 19.335542 -52.336048 -36.146410
-69.304589 75.261720 -13.477789 -6.850658 3.700498 151.856866 0.244283 -16.179422 -20.828850 -12.931900 36.582640 23.335130 -15.392403 -15.504415 -10.968302 22.510355 6.910302 -29.445267 -48.499797 -49.143413 -79.619508 -67.812420 -68.360119 -99.528096 -49.104607 -20.025339 -28.378229 -98.115968 42.300099 99.317378 109.134354 12.929061 221.695660 -0.052513 69.257244 49.258361 -26.368430 -13.535329 25.654887 19.980634 -40.908595 -168.468774 -7.691883 -20.323557 146.281765 -50.700293 -8.400199 77.675910 4.645891 8.186438 -22.802037 -28.024205 -5.056765 -50.418435 -17.787530 28.420678 36.919683 -32.295870 -11.836623 50.196764 19.569708 -53.812632 -35.865627
-70.394768 74.622902 -16.015675 -5.977203 4.306896 151.274907 0.849996 -14.722655 -20.786301 -13.012249 35.071256 23.753137 -15.395636 -18.066865 -10.743421 20.993305 4.314105 -30.791104 -48.072832 -50.224065 -80.998742 -61.653304 -75.267599 -95.164780 -56.151566 -19.391957 -27.979510 -98.240892 42.846825 99.834314 104.379511 12.762117 223.955701 0.824321 72.943654 45.932606 -26.287288 -12.892115 26.279267 19.705362 -40.448298 -169.623336 -8.440410 -21.301070 147.926092 -51.654702 -8.189828 77.192933 3.642549 7.252618 -23.483176 -29.201859 -2.948971 -50.101695 -17.851620 28.021800 37.368477 -32.501445 -11.390388 49.764830 20.383682 -55.428802 -34.759645
-71.599258 74.194688 -18.560054 -5.443498 5.616196 150.490828 0.915223 -11.826521 -20.439047 -12.102240 36.345441 24.764396 -15.514266 -18.436240 -10.488801 20.850908 5.647390 -28.615936 -44.316337 -52.982259 -80.170274 -60.053701 -75.016316 -92.394141 -58.219986 -18.464371 -26.499689 -93.483577 42.816957 97.696615 101.506631 13.263118 228.026753 -4.613665 71.794857 50.003514 -21.725298 -15.141928 26.770686 19.049809 -39.121712 -170.161582 -8.531355 -22.248607 149.445386 -51.587258 -8.163588 76.211695 2.115840 6.147167 -24.494785 -31.185500 -1.155044 -49.620167 -18.287908 28.019381 37.666714 -33.059410 -10.623883 48.986895 21.794094 -57.464608 -32.854098
-72.855905 73.842977 -21.106617 -5.361399 4.416622 149.456314 -1.946736 -12.333904 -21.155324 -12.328778 38.389959 24.545822 -15.538259 -19.885648 -10.252411 18.849387 9.870137 -25.395615 -39.505800 -57.680722 -77.103342 -59.936290 -73.420982 -92.066367 -55.777596 -19.377713 -28.352264 -88.983588 45.798297 95.747484 101.108841 12.553824 224.640045 -9.918112 73.435066 54.730852 -18.467795 -16.781186 29.521030 19.212759 -39.785773 -170.152648 -8.839262 -23.017420 151.152961 -51.708480 -7.777534 75.542691 1.062741 4.776867 -25.653033 -31.457707 -2.038677 -49.632113 -17.871928 27.198235 38.493235 -50.856253 -10.285223 47.557596 38.242762 -59.870829 -31.843691
-74.169649 73.716272 -23.370423 -6.238818 3.592727 147.539244 -2.728061 -11.670567 -20.660977 -9.660806 43.188536 25.532673 -15.177884 -22.576442 -10.081866 18.488702 16.526763 -19.906757 -31.783124 -61.629705 -71.559421 -62.035002 -70.157360 -91.706594 -49.773713 -20.473721 -30.305737 -83.018299 49.793940 93.804370 100.403781 10.702425 218.412948 -12.315512 74.609469 62.723109 -17.635065 -19.213312 35.595510 19.301870 -40.169439 -168.096051 -8.781220 -24.129448 151.453585 -51.933135 -7.216745 74.791104 0.307920 3.272973 -27.213586 -34.255537 -4.474246 -50.722634 -20.624955 26.912844 39.338553 -43.749674 -7.412365 48.192766 33.072684 -59.395161 -29.907780
-75.358266 74.837126 -25.255398 -8.351608 2.030792 146.247778 -4.135328 -11.945301 -17.594340 -11.253929 48.564199 26.069555 -14.203520 -25.552713 -10.113805 16.371398 22.043418 -15.428094 -21.124110 -64.298335 -62.748586 -60.639137 -66.916518 -94.255948 -46.565887 -18.300549 -36.641660 -72.427483 53.050595 87.998375 103.621859 7.253091 211.776599 -13.649739 71.648124 71.690253 -20.292504 -17.707617 39.240577 18.897113 -41.676821 -165.888739 -7.912219 -25.665913 149.314916 -51.100586 -6.189426 73.274256 -2.389496 1.667112 -27.447260 -37.200472 -8.243032 -53.457353 -22.441876 25.851119 40.140755 -37.508643 -3.962133 48.927599 36.953581 -54.674155 -19.376816
-76.726283 75.130748 -26.701660 -7.853585 2.214428 145.126493 -4.299386 -11.498105 -13.593521 -12.232018 53.244777 28.033232 -12.059415 -28.753310 -10.398511 16.203584 26.397033 -11.045066 -5.750051 -66.328377 -49.434232 -57.315956 -62.497392 -97.298872 -45.820495 -13.411195 -43.063772 -59.218608 58.068028 80.209111 108.670844 2.180003 209.734086 -15.307562 70.432207 80.281552 -22.037443 -12.115799 37.602053 18.901189 -41.215404 -162.961169 -7.738938 -27.173991 145.640848 -49.389743 -4.603898 71.980181 -5.556027 -0.104175 -26.855969 -37.764140 -9.234012 -56.743596 -23.859072 23.800472 41.316566 -32.081665 -0.223545 49.373419 37.745555 -46.869820 -11.785381
-78.163518 75.327553 -27.658875 -6.412591 2.692927 143.015022 -2.315033 -13.655800 -11.743419 -12.673769 56.453590 26.987321 -8.082446 -32.471853 -11.071562 14.618608 31.187959 -9.181202 10.290761 -66.488784 -27.391174 -53.485285 -58.167940 -95.191834 -44.117397 -8.968575 -52.567181 -43.411347 62.490869 72.054056 115.746886 -5.206748 205.599294 -20.727464 69.387584 86.580427 -22.833054 -4.234531 37.075349 19.391141 -39.836791 -159.247841 -8.479915 -28.697293 140.644919 -46.862351 -2.685331 70.645173 -8.923285 -2.374898 -25.977258 -37.004292 -10.559552 -60.537005 -24.862889 21.014619 43.291768 -27.296323 3.734963 49.589376 36.271819 -37.176737 -6.832267
-79.645828 75.822614 -28.308732 -6.294577 4.111810 141.875638 -0.761737 -14.065274 -11.700512 -14.395469 56.914774 26.021119 -4.742398 -32.594602 -11.544035 12.640353 37.453376 -3.678247 22.588810 -67.151333 -18.816925 -47.375746 -59.148489 -94.373864 -49.105806 -5.748201 -59.782576 -28.771390 64.569760 61.453159 113.300537 -9.860486 199.129002 -27.170095 72.299881 91.165909 -24.586786 -14.205958 41.063405 17.831104 -39.187312 -153.980235 -10.273800 -31.060876 131.406665 -46.579882 -0.518625 68.334233 -17.262555 9.223859 -24.610357 -37.228605 -12.803637 -64.668450 -26.956204 19.200919 47.553218 -23.352075 7.649002 49.083478 39.644436 -26.362502 -1.911955
-81.061791 76.456150 -28.656983 -7.132393 5.271221 140.870603 0.828072 -17.760461 -12.832443 -14.432246 51.571412 26.935744 -4.132098 -26.499947 -11.287938 11.725852 42.468979 2.598410 31.526804 -67.697495 -13.114937 -42.416202 -61.183195 -92.527896 -55.547217 -4.103546 -63.886174 -25.347051 65.946528 57.292371 115.251533 -14.631276 199.764482 -31.856989 69.625801 93.591500 -33.244436 -3.041827 24.824254 15.738093 -38.957384 -147.655685 -11.952904 -32.507903 119.941769 -45.580789 1.317927 65.861178 -13.252795 -3.266141 -21.148038 -34.887387 -16.848441 -69.412986 -27.062929 13.896711 54.019006 -23.778542 10.399801 48.443161 40.478098 -15.070483 -10.643888
-82.359265 77.056693 -28.704462 -7.978615 6.070809 138.527055 2.446924 -25.222550 -16.876045 -13.896822 44.066929 27.233064 -6.358486 -18.550739 -10.148071 12.439315 44.551651 6.430518 39.527722 -68.374025 -10.200770 -38.367283 -63.555566 -89.418965 -54.117474 -10.489968 -50.348968 -26.598022 66.552612 55.897879 119.706551 -16.998102 195.959083 -36.979747 68.401401 92.478849 -39.624646 -9.056159 28.451776 14.186334 -37.123342 -140.729641 -14.239871 -31.740982 106.556135 -44.368427 3.360915 63.899302 -16.412439 -3.454191 -17.593889 -29.925234 -20.825223 -73.887921 -25.233876 7.379466 60.301787 -25.932237 13.638622 48.217454 32.193844 -12.381337 -11.721340
